<svg width="164" height="199" viewBox="0 0 164 199" fill="none" xmlns="http://www.w3.org/2000/svg">
<path d="M101.162 8.4123V8.3998C103.875 38.2123 119.45 53.7248 134.325 68.5248C149.125 83.2498 163.225 97.2873 163.225 124C163.225 167.75 125.725 199 81.975 199C38.225 199 0.75 167.9 0.75 124C0.75 107.775 7.45 91.9998 18.5625 82.9248C23.2625 79.0748 29.3375 82.9248 31.5 88.5998C37.75 105.087 51.7625 104.237 57 98.9998C60.525 95.4748 61.2625 88.8623 56.9625 80.2498C36.25 38.8373 69.9375 8.3748 91.625 0.824803C96.5 -0.887697 100.7 3.2498 101.162 8.4123ZM81.975 180.25C117.375 180.25 144.475 155.5 144.475 124C144.475 105.712 135.975 96.6248 120.988 81.7123L120.538 81.2498C107.875 68.6498 91.7875 52.6248 85.1125 25.8248C81.0875 29.0248 77.2375 33.0623 74.3125 37.7373C68.9125 46.4373 66.55 57.4873 73.7375 71.8623C79.65 83.6998 82.1125 100.412 70.2625 112.262C62.6375 119.887 50.95 122.762 40.225 120.175C33.2608 118.465 26.9928 114.65 22.275 109.25C20.427 113.947 19.4854 118.952 19.5 124C19.5 155.625 46.55 180.25 81.975 180.25Z" fill="currentColor"/>
</svg>
