<svg width="36" height="36" viewBox="0 0 36 36" fill="none" xmlns="http://www.w3.org/2000/svg">
<g clip-path="url(#clip0_2145_873)">
<path d="M14.9297 15.7734H0.84375C0.377789 15.7734 0 15.3956 0 14.9297V0.84375C0 0.377789 0.377789 0 0.84375 0H4.21875C4.68471 0 5.0625 0.377789 5.0625 0.84375V6.336C8.28091 2.7618 12.9558 0.525234 18.1529 0.562992C27.7791 0.632883 35.4813 8.41148 35.4608 18.0379C35.4404 27.651 27.6413 35.4375 18.0234 35.4375C13.5172 35.4375 9.41041 33.728 6.31568 30.9224C5.95716 30.5974 5.94063 30.0397 6.28284 29.6975L8.67115 27.3092C8.98573 26.9947 9.49113 26.9776 9.82434 27.2723C12.0066 29.2033 14.8767 30.375 18.0234 30.375C24.8626 30.375 30.3984 24.8403 30.3984 18C30.3984 11.1609 24.8637 5.625 18.0234 5.625C13.9104 5.625 10.2694 7.62722 8.01977 10.7109H14.9297C15.3956 10.7109 15.7734 11.0887 15.7734 11.5547V14.9297C15.7734 15.3956 15.3956 15.7734 14.9297 15.7734V15.7734Z" fill="#81E4D7"/>
</g>
<defs>
<clipPath id="clip0_2145_873">
<rect width="36" height="36" fill="white"/>
</clipPath>
</defs>
</svg>
