<svg width="21" height="20" viewBox="0 0 21 20" fill="none" xmlns="http://www.w3.org/2000/svg">
<path d="M6.67285 1H3.67285C3.14242 1 2.63371 1.21071 2.25864 1.58579C1.88357 1.96086 1.67285 2.46957 1.67285 3V6M19.6729 6V3C19.6729 2.46957 19.4621 1.96086 19.0871 1.58579C18.712 1.21071 18.2033 1 17.6729 1H14.6729M14.6729 19H17.6729C18.2033 19 18.712 18.7893 19.0871 18.4142C19.4621 18.0391 19.6729 17.5304 19.6729 17V14M1.67285 14V17C1.67285 17.5304 1.88357 18.0391 2.25864 18.4142C2.63371 18.7893 3.14242 19 3.67285 19H6.67285" stroke="#F6F7F8" stroke-width="2" stroke-linecap="round" stroke-linejoin="round"/>
</svg>
