<svg width="512" height="512" viewBox="0 0 512 512" fill="none" xmlns="http://www.w3.org/2000/svg">
<rect width="512" height="512" fill="#2A2D3C"/>
<rect width="209.533" height="246.78" transform="translate(28 132)" fill="#F6F7F8"/>
<path d="M181.656 348.27C187.258 343.068 191.66 336.865 194.861 329.663C198.262 322.46 199.963 314.357 199.963 305.353C199.963 290.748 197.362 279.244 192.16 270.84C186.958 262.437 180.156 256.235 171.752 252.233C162.549 247.832 152.945 244.23 142.942 241.429C132.938 238.428 124.335 235.027 117.132 231.226C112.53 228.625 108.829 225.523 106.028 221.922C103.227 218.121 101.826 213.219 101.826 207.217C101.826 202.815 102.426 198.713 103.627 194.912C105.027 190.91 107.028 187.409 109.629 184.408C112.43 181.207 116.031 178.706 120.433 176.905C124.835 174.904 130.037 173.904 136.039 173.904C142.041 173.904 147.543 174.504 152.545 175.705C157.547 176.905 161.949 178.306 165.75 179.906V197.613H189.459V168.202C184.657 164.2 179.755 160.999 174.754 158.598C169.952 156.197 165.25 154.397 160.648 153.196C156.047 151.996 151.645 151.195 147.443 150.795C143.242 150.395 139.34 150.195 135.739 150.195C124.735 150.195 115.431 151.896 107.828 155.297C100.226 158.698 94.1232 163.1 89.5215 168.502C84.9197 173.904 81.6185 179.906 79.6177 186.509C77.617 193.111 76.7166 199.714 76.9167 206.316C77.1168 218.721 79.6177 228.324 84.4195 235.127C89.4214 241.93 95.6238 247.232 103.027 251.033C110.229 254.834 118.032 257.836 126.435 260.036C134.839 262.237 142.641 264.838 149.844 267.839C154.446 270.04 158.447 272.441 161.849 275.042C165.45 277.443 168.551 280.744 171.152 284.946C172.753 287.547 173.753 290.648 174.153 294.249C174.754 297.851 175.054 301.452 175.054 305.053C175.054 310.856 173.953 315.957 171.752 320.359C169.552 324.761 166.651 328.462 163.049 331.463C159.248 334.264 154.946 336.465 150.144 338.066C145.342 339.466 140.341 340.167 135.139 340.167C126.135 340.167 118.032 338.766 110.829 335.965C103.627 332.964 97.4244 329.463 92.2225 325.461V298.751H68.5136V333.564C71.1145 337.566 74.7159 341.367 79.3176 344.968C84.1194 348.57 89.5215 351.771 95.5237 354.572C101.526 357.373 108.128 359.674 115.331 361.475C122.534 363.075 129.937 363.876 137.54 363.876C145.943 363.876 153.946 362.575 161.549 359.974C169.151 357.173 175.854 353.272 181.656 348.27Z" fill="#2A2D3C"/>
<rect width="248" height="248" transform="translate(252 132)" fill="#2A2D3C"/>
<rect x="267" y="163" width="218" height="186" rx="50" fill="#F6F7F8"/>
<rect x="291" y="187" width="170" height="138" rx="25" fill="#2A2D3C"/>
<rect width="24" height="248" transform="translate(396 132)" fill="#F6F7F8"/>
<rect width="32" height="248" transform="translate(364 132)" fill="#2A2D3C"/>
<rect width="144" height="44" transform="translate(252 234)" fill="#2A2D3C"/>
</svg>
