<svg class="svg-light-mode" width="32" height="33" viewBox="0 0 32 33" fill="none" xmlns="http://www.w3.org/2000/svg">
<g clip-path="url(#clip0_801_67)">
<path d="M16 10.5C12.6938 10.5 10 13.1938 10 16.5C10 19.8062 12.6938 22.5 16 22.5C19.3063 22.5 22 19.8062 22 16.5C22 13.1938 19.3063 10.5 16 10.5ZM31.4 15.5312L25.4813 12.575L27.575 6.3C27.8563 5.45 27.05 4.64375 26.2063 4.93125L19.9313 7.025L16.9688 1.1C16.5688 0.3 15.4313 0.3 15.0313 1.1L12.075 7.01875L5.79375 4.925C4.94375 4.64375 4.1375 5.45 4.425 6.29375L6.51875 12.5688L0.6 15.5312C-0.2 15.9312 -0.2 17.0688 0.6 17.4688L6.51875 20.425L4.425 26.7062C4.14375 27.5562 4.95 28.3625 5.79375 28.075L12.0688 25.9813L15.025 31.9C15.425 32.7 16.5625 32.7 16.9625 31.9L19.9188 25.9813L26.1938 28.075C27.0438 28.3563 27.85 27.55 27.5625 26.7062L25.4688 20.4312L31.3875 17.475C32.2 17.0688 32.2 15.9312 31.4 15.5312ZM21.6563 22.1562C18.5375 25.275 13.4625 25.275 10.3438 22.1562C7.225 19.0375 7.225 13.9625 10.3438 10.8438C13.4625 7.725 18.5375 7.725 21.6563 10.8438C24.775 13.9625 24.775 19.0375 21.6563 22.1562Z" fill="#F6F7F8"/>
</g>
<defs>
<clipPath id="clip0_801_67">
<rect width="32" height="32" fill="white" transform="translate(0 0.5)"/>
</clipPath>
</defs>
</svg>
