<svg width="125" height="160" viewBox="0 0 125 160" fill="none" xmlns="http://www.w3.org/2000/svg">
<path d="M5.30908 72.4085C8.75608 64.5946 13.7671 57.5812 20.0285 51.8072L25.1954 47.0324C25.3708 46.8747 25.582 46.7628 25.8104 46.7065C26.0388 46.6502 26.2774 46.6512 26.5053 46.7095C26.7332 46.7678 26.9434 46.8815 27.1175 47.0407C27.2915 47.1999 27.4241 47.3997 27.5037 47.6225L29.8119 54.2929C31.2501 58.4776 33.8957 62.7516 37.6421 66.9542C37.8907 67.2224 38.1748 67.2939 38.3701 67.3118C38.5654 67.3297 38.8673 67.2939 39.1336 67.0436C39.3822 66.829 39.5065 66.5071 39.4887 66.1852C38.8318 55.4196 42.0278 43.2769 49.0235 30.0613C54.8119 19.0811 62.8552 10.5151 72.9049 4.5421L80.238 0.196502C81.1968 -0.375757 82.4219 0.375333 82.3687 1.50197L81.978 10.0859C81.7117 15.9515 82.3864 21.1376 83.9844 25.4475C85.9375 30.723 88.7429 35.6229 92.3296 40.0222C94.8256 43.0795 97.6547 45.8449 100.764 48.2663C108.251 54.0634 114.339 61.4915 118.572 69.9943C122.795 78.5713 124.995 88.0144 125 97.5879C125 106.029 123.349 114.201 120.082 121.909C116.927 129.33 112.375 136.065 106.676 141.741C100.923 147.464 94.2472 151.97 86.8076 155.1C79.1016 158.355 70.934 160 62.5001 160C54.0661 160 45.8985 158.355 38.1926 155.118C30.7713 152.007 24.0227 147.469 18.324 141.759C12.5711 136.037 8.0612 129.348 4.91845 121.927C1.65633 114.24 -0.0171263 105.965 0.0001297 97.6058C0.0001297 88.8789 1.7757 80.4023 5.30908 72.4085Z" fill="#2D3039"/>
</svg>
